<svg width="189" height="189" xmlns="http://www.w3.org/2000/svg" xmlns:xlink="http://www.w3.org/1999/xlink" overflow="hidden"><defs><clipPath id="clip0"><rect x="592" y="219" width="189" height="189"/></clipPath></defs><g clip-path="url(#clip0)" transform="translate(-592 -219)"><path d="M656.969 279.638C656.969 289.423 649.036 297.356 639.25 297.356 629.464 297.356 621.531 289.423 621.531 279.638 621.531 269.852 629.464 261.919 639.25 261.919 649.036 261.919 656.969 269.852 656.969 279.638Z" fill="#69A7A3"/><path d="M751.469 279.638C751.469 289.423 743.536 297.356 733.75 297.356 723.964 297.356 716.031 289.423 716.031 279.638 716.031 269.852 723.964 261.919 733.75 261.919 743.536 261.919 751.469 269.852 751.469 279.638Z" fill="#69A7A3"/><path d="M721.938 365.081 721.938 347.362C721.938 344.606 720.756 341.85 718.394 340.275 713.669 336.337 707.369 333.581 701.069 332.006 696.737 330.825 691.619 329.644 686.5 329.644 681.775 329.644 676.656 330.431 671.931 332.006 665.631 333.581 659.725 336.731 654.606 340.275 652.244 342.244 651.062 344.606 651.062 347.362L651.062 365.081 721.938 365.081Z" fill="#69A7A3"/><path d="M704.219 307.2C704.219 316.986 696.286 324.919 686.5 324.919 676.714 324.919 668.781 316.986 668.781 307.2 668.781 297.414 676.714 289.481 686.5 289.481 696.286 289.481 704.219 297.414 704.219 307.2Z" fill="#69A7A3"/><path d="M765.644 312.712C760.919 308.775 754.619 306.019 748.319 304.444 743.987 303.263 738.869 302.081 733.75 302.081 729.025 302.081 723.906 302.869 719.181 304.444 716.819 305.231 714.456 306.019 712.094 307.2L712.094 307.594C712.094 314.288 709.338 320.587 705.006 324.919 712.487 327.281 718.394 330.431 723.119 333.975 724.3 335.156 725.481 335.944 726.269 337.519L769.188 337.519 769.188 319.8C769.188 317.044 768.006 314.288 765.644 312.712Z" fill="#69A7A3"/><path d="M649.881 333.975 649.881 333.975C655.394 330.038 661.694 326.888 667.994 324.919 663.662 320.194 660.906 314.288 660.906 307.594 660.906 307.2 660.906 307.2 660.906 306.806 658.544 306.019 656.181 304.837 653.819 304.444 649.487 303.263 644.369 302.081 639.25 302.081 634.525 302.081 629.406 302.869 624.681 304.444 618.381 306.413 612.475 309.169 607.356 312.712 604.994 314.288 603.812 317.044 603.812 319.8L603.812 337.519 646.338 337.519C647.519 335.944 648.306 335.156 649.881 333.975Z" fill="#69A7A3"/></g></svg>